<svg xmlns="http://www.w3.org/2000/svg" width="860.2" height="295.2"><path d="M436 229v-7c10 0 15-5 15-13v-50c0-11-5-17-16-17v-6l18-4 18-4v28l1-4 3-7a43 43 0 0 1 14-14c3-2 7-3 10-3q18 0 18 17c0 9-4 13-11 13s-10-3-10-9l1-5h-4c-5 0-9 1-12 4-2 3-5 7-6 11a172 172 0 0 0-4 25v25q0 13 18 13v7zm89 0v-7q17 0 17-14v-47c0-13-5-19-15-19v-6l35-8v81c0 8 6 13 17 13v7zm58 43v-6q13 0 13-7V154q0-10-14-10v-5l33-11 1 8v11q5-10 13-14c6-3 12-5 18-5q11 0 19 6c6 3 10 7 14 12 3 5 6 11 7 17a59 59 0 0 1-9 51c-4 5-8 9-14 12q-8 5-17 6c-8 0-14-1-19-3l-11-7-1 1c1 1 1-11 1-6v41c0 5 6 8 19 8v6h-52Zm33-82c2 13 7 27 20 31 14 5 26-7 30-19 7-18 3-42-10-54-7-7-18-9-26-4-13 10-16 30-14 45zm78 39v-7q16 0 16-11V91c0-7-6-11-19-11v-7l38-7v146c0 7 6 10 18 10v7z" style="fill:#1a1818"/><path d="M457 71a269 269 0 0 1-21 2h-91a98 98 0 0 1-19-2l-6 43 9 2c3-10 7-18 12-23 6-7 15-10 25-10 8 0 12 3 12 8v109q0 22-25 22v7h74v-7q-26 0-26-22V91c0-5 4-8 12-8 21 0 34 11 37 32l7-1zm355 62v7h13c4 0 7 2 4 10l-23 56-28-58c-2-3 1-8 5-8h11v-7h-49v7c7 0 11 3 14 9l37 79-4 11a87 87 0 0 1-12 18l-4 3q-3 0-4-2l-1-5-2-4-6-2q-9 0-9 12c0 12 4 11 13 11 4 0 7-1 11-3l9-8 9-10a174 174 0 0 0 14-29l29-72c2-5 7-8 13-8v-7z" style="fill:#1a1818"/><circle cx="549.5" cy="88.1" r="16.2" style="fill:#df0f79"/><path d="m237 49-29 17v32l-55-32 28-16V17L153 0 11 82v33l29 17 28-17v65l-29-17-28 17v33l141 82 29-17v-33l-29-16 57-33-1 33 29 17 29-17V66zM124 180l1-64 55 32z" style="fill:#df0f79"/><path d="m124 82 29-16 55 32 1 33zm1 131 84-49v32l-57 33z" style="fill:#9f2066"/><path d="m152 262 29-17v33l-29 17z" style="fill:#b52076"/><path d="m208 66 29 16 29-16-29-17Z" style="fill:#9f2066"/><path d="M11 82v33l29 17V98z" style="fill:#b52076"/><path d="M68 115v65l28 16V99Z" style="fill:#9f2066"/><path d="m11 82 29 16 141-81-28-17Zm141 180v33L11 213v-33zM266 66v163l-29 17V82z" style="fill:#dc6aa5"/><path d="m101 192-1 2 2-1zm-4 0-1 2h2l1-1zm19-10-1 2 1 1 1-1v-1zm2-2-1 2h2v-1zm-4 4-1 2 2-1zm-7 2v2h2v-1zm4 0v2l2-1zm-6 2v2l1 1 1-1v-1zm17-8v2l1-2zm-19 10v2l2-1zm1-6 1-1-2-1v2zm-7 4v2h1v-1zm26-10 1-1-2-1v2zm-17 8 1-1-2-1v2zm8-10-1 2h2v-1zm-1 4v-1l-1-1-1 2zm-9 8 1-1-2-1v2zm-4 0v-1l-1-1v2zm0 3-1-1-1 2h2zm9-7v-1l-1-1-1 2zm-7 6 1-1-2-1v2zm0-4 1-1-2-1v2zm9-4v-1l-1-1-1 2zm13-10h-2v1l1 1zm-7 8v-1l-1-1v2zm-2 2v-1l-1-1-1 2zm6-6 1-1-2-1v2zm0 3-1-1v2h1zm-2-1v-1l-1-1v2zm-6 5-1-1-1 2h2zm-2 2-1-1-1 2h2zm10-13 1-2h-2v2zm-3 1 1 1v-2h-1zm-16 9 1-1-2-1v1zm-3 0v2h1l1-1zm12-4v-1l-1-1-1 2zm-4 3-2-1v2h1zm2-1v-2h-1l-1 1zm7-6v1l1 1v-1zm-18 12v-1l-1-1v1zm14-12-1 1 2 1v-2zm7-4 1-2h-2v1zm-2 2 1-2h-2v1zm-8 4v-2h-1l-1 1zm14-6 1-2a1 1 0 0 0-2 0v1zm-8 4v-2h-1l-1 1zm-17 8 1-2h-2v1zm6-2 1-2a1 1 0 0 0-2 0v1zm2-4-1 1 1 1 1-1zm18 4v-2zm-3-12 1-2h-2v1zm-21 12 1-2h-2v1zm6-6 1-2h-2v1zm11-7 1-1h-2v1zm-15 11 1-2h-2v1zm21-12 1-2h-2v1zm-12 8v-2h-1l-1 1zm2-2v-2h-1l-1 1zm11 3v1-2zm-19 1v-2h-1l-1 1zm10-6v-2h-1v1zm-6 2v-2h-1l-1 1zm6-7v-1h-1v1zm-13 8 1-1h-1l-1 1zm-3 4v-1h-1l-1 1v1zm1-1v-2h-1v1zm5-5v-1h-1l-1 1zm14-5v-2h-1v1zm4-5 1-1h-1l-1 1zm-10 6v-1h-1v1zm8-4 1-1h-2v1zm-10 6v-1h-1v1zm13 2v1h1v-2zm0-5v2h1v-2zm0-9v-1h-1l-1 1zm-20 10 1-1h-2zm11-6v-1h-1v1zm-6 6v-1h-1l-1 1zm8-4 1-1h-2v1zm-10 6v-1h-1l-1 1zm6-6v-1h-1v1zm-6 2v-1h-1l-1 1zm12-4v-1a1 1 0 0 0-1 0v1zm-10 2v-1h-1v1zm10-6 1-1h-2v1zm-2 2 1-1h-2v1zm-6 6v-1h-1v1zm10-6 1-1a1 1 0 0 0-1 0l-1 1zm-25 36v1zm1-8-1-1v2zm16-28v-1h-1v1zm11-6v-1h-1v1zm0 9v1l1 1v-2zm-3-7 1-1h-1l-1 1zm-25 29 1-1a1 1 0 0 0-1-1zm0 7v1zm15-30v-1l-1-1v2zm6-6 1-1-2-1v1zm-2 2v-1c1 0 0 0 0 0h-1zm9 2h1v-1zm1-4v-1h-1v1zm-16 4v-1h-1zm10-6 1-1h-1l-1 1zm2-2 1-1h-2zm-10 6v-1h-1zm8-8v-2l-1 1zm-6 6v-1h-1zm9-9a1 1 0 0 0-1-1v1zm2-2-1-1v1zm-7 7 1-1-1-1-1 1zm7-3-1-1v1zm-9 5v-1q0-1.5 0 0h-1zm-13 16h1v-1zm15-23h1l-1-1zs0 1 0 0m5-4v-1h-1v1m-6 6s1 0 0 0v-1l-1 1zm4-4h1l-1-1zm-23 36v-2zm28-40v-1l-1 1zm0-4v-1h-1v1zm-3 2 1-1h-1zm-2 2h1l-1-1zm-6 10v1zm93 13 1 2 1-1zm-18-10h1l-1-1zm-3-2v1h2zm10 6 1 2h1l1-1-2-1zm4 2h1l-2-1zm-5 4v1h2l-1-2zm9 4 1-1v-1h-2zm-22-18h-2l1 2 1-1zm15 11h-1v1h2zm-13-4 1 2h1v-2zm3 1 1 2 1-1v-1l-2 1m13 2-1 1v1h1zm1 4v2h2l-1-2zm3-2 1 2h1v-2zm-10-3h-1v1h2zm9 2h-1v2h1zm-5 3v1h2l-1-2zm-8-6v2l2-1v-1zm-12-7h-1v2l1-1zm9 2-2 1v1h2zm3 1-2 1v1h2zm-10-2v1h1v-1zm3-2 1 2 1-1v-1zm1 3h-2l1 1h1zm9 2h-2v2l2-1zm1 1v2l1-1v-1zm-18-2v1h2l-1-1zm3 1v1h2l-1-1zm17 12v-2l-2 1 1 1zm3 0v-1h-2v2zm-11-6v-1h-2l1 2zm6 2v-1h-2l1 1zm-3-1v-1h-2l1 2zm-8-7-1 1v1h1zm17 12v2l2-1-1-1zm-16-6h1v-2h-1zm-9-3h2v-1h-2zm3 1h2l-1-2-1 1zm9 4h-1v2l1-1zm-13-10h-1v2l2-1zm7 6v1h1v-2zm17 11v-1h-2l1 2zm-5-4v-2l-2 1 1 1a1 1 0 0 0 1 0m-3-2h-1v1h1zm-18-8v2l2-1v-1zm23 12-2 1 1 1h1zm-9-2h-1v1h2zm-12-5h2l-1-2-1 1zm18 8v-2l-1 1v1zm-23-14 1 2 1-1v-1zm14 7v2l1-1v-1zm-3 1 2-1-1-1h-1zm-2-13 1-1h1zm11 16-1 1v1h1zm-10-4-1-2-1 1v1zm5 4-1-1h-1v1zm-9-2v-2l-1 1v1zm12 7h1v-1h-1zm5 1h2v-1h-1v1zm-2 0 1-1v-1l-1 1zm-4-2-1-1h-1v1zm-14-11v1h1v-1zm-5-2h-1v2l1-1zm11 8v-2l-2 1 1 1zm-9-7v1h1v-1zm12 7-1-1h-1v2zm-6-13h1v-1l-2 1zm-4 2 1-1zm-9 5v2l2-1-1-1zm19 13h1v-1h-2zm-10-6v-1h-1v1zm9 2v-1h-2l1 1zm-9-6v1h1v-1zm12 7-1-1h-1l1 1zm-9-2v-2l-1 1v1zm4 4h1v-1h-1zm-10-10v1h1v-1zm7 9h1v-1h-1zm-11-7 1 1h1l-1-1zm3 1v1h1v-1zm10 3v-1h-1v2zm-12-7v1h1v-1zm38 8h1zm-32 0-1-1-1 1v1zm-13-7 1 2 1-1v-1zm9-5h1v-1zm-5 8 1-1-1-1h-1zm38 6h-1zm7-4h-1 2zm-34 2h-1v2l1-1zm-10-2 1 1h1l-1-1zm4 1c0-1 0 0 0 0h-1l1 1zm-2-10-1 1zm-5 3h1v-1zm12 12v-1h-1v1zm-11-7v1h1v-1zm-3-1v1h1v-1zm10 7h1q0 1.5 0 0v-1zm-11-4v1h1v-1zm9 3v1h1zq0-1.5 0 0m-12-4a1 1 0 0 0 0 1h1v-1zm-2 0v-1l-1 1zm8 2v1h1v-1zm-4-4v-1l-1 1v1zm8 6v-1h-1v1zm21 2-1-1-1 1zm-29-2v1h1v-1zm-6-1h1c0 1 0 0 0 0v-1zm9 2v1h1v-1zm-6-2 1 1v-1zm42 3h2zm-47-4h1l-1-1zm-3 2h-1zm2 1h1zm3 1h1a1 1 0 0 0-1-1zm12 0h1zm-36-89h-1v1zm0 25v-1 2zm0-12v-1h-1v1zm3-2 1 1 1-1-1-1zm-1-10-1 2 1 1 1-2zm-2 31 1-1-1-1zm2-19 1-1-1-1-2 1zm2 12 1-1-1-1-1 1zm0-3 1-1-1-1-1 1zm-4-13 1 1 1-1-1-1zm3-5-1 1 1 1 1-1zm-3-1-1-1v2zm2 13 1-1-1-1-1 1zm-2-9 1-1-1-1h-1v2zm4 0-1 1 1 1 1-1zm0 11-1-1-1 1 1 1zm0 16 1-1-1-1-1 1zm-2-8 1-1-1-2-1 1c-1 1 0 2 1 2m-2-5 1 2 1-2-1-1zm3 10 1-1-1-1-1 1zm-2-3-1-1v2zm1 0 1-1-1-1-1 1zm-2-8 1-1-1-2zm0-4-1-1v2zm7 17 1-1-1-1-1 1zm-1-3 1-1-1-1-1 1zm1-21-1 1 1 2 1-2zm0-3-2 1 1 1 2-1zm0 15 1-1-1-1-2 1zm-1-7-1-1-1 1 1 1zm1 3-1-1-1 1 1 1zm-1 10-1-1-1 1 1 1zm0-23-1 1 1 1 1-1zm1 20 1-1-1-1-1 1zm3 9 1-1-1-1-1 1zm0-4-1-1-1 1 1 1zm1-10-1-1-1 1 1 1zm-4 17 2-1-1-1-2 1zm1-9 1-1-1-1-1 1zm2-21-2 1 1 1 2-1zm-3 7 1 1 1-1-1-1zm3 3-1-1-1 1 1 1zm0 20 2-1-1-1-2 1zm0-27-1 1 1 1 1-1zm3 10 1-1-1-1-1 1zm1 12-1-1-1 1 1 1zm-3-19-1 1 1 1 1-1zm0 27 1-1-1-1-1 1zm-1-16 1-1-1-1-1 1zm1 3 1-1-1-1-1 1zm-9 7h-2l2 1zm9-17 1 1 1-1-1-1zm1 13 1-1-1-1-1 1zm2-8-1-1-1 1 1 1zm1 10 1-1-1-1zm0-17-1 1 1 1 1-1zm-2-6h-1v1l1 1h1v-1zm1 3-1 1 1 1 1-1zm1 6v2l1-1zm-2 18 1-1-1-1-1 1zm2 6 1-1-1-1-1 1zm0-13 1-1-1-1-1 1zm-1 10 1-1-1-1-1 1zm0-13 1-1h-2zm-9 10h-1l2 1zm4 3-1-1zm9 5 1-1v-1l-1 1zm1-24-1 1 1 1 1-1v-1zm0 14 1-1-1-1-1 1zm-3-9h2l-1-1zm1 9-1-1-1 1 1 1zm-1-13-1 1h2zm2 10 1-1h-1c0-1 0 0 0 0zm2-8-1 1 1 1 1-1zm-3 15 1-1-1-1-1 1zm4-12-1 1 1 1zm0 14 1-1-1-1-1 1zm0-4h-2l1 1zm-3-8v-1l-1 1zm0 13 1-1-1-1-1 1zm-13-37-1-1zm17 28-1 1h2zm0 14 1-1-1-1-1 1zm-9-5h-1q0-1.5 0 0zm8 2 1-1-1-1zm-13-38v1h1zm-8-4h2zm21 28v2l1-1zm3 10v-1l-1 1zm-2-4v1h1v-1zm-6 8h-1zm4 2a1 1 0 0 0-1 0zm3-16 1 1 1-1-1-1zm1 13 1-1h-1zm1 3 1-1h-2zm0-14-1 1 1 1 1-1zm3 13 1-1h-2zm-3-9h2l-1-1zm4 12v-1l-1 1zm1 3v-1h-1zm-3-9h1l-1-1zm-1 7 1-1h-2zm1-10-1-1v1zm-9-20q-1.5 0 0 0l1 1-1-2zm13 26 1-1-1-1-1 1zm2 5v-1l-1 1zm-2-9-1-1v1zm1 6v-1l-1 1zm-19-38h-1v-1zm20 44v-1zm4 2v-1zm-1-4v1h1zm-1-2h1zq0-1.5 0 0m-6-11v1z" style="fill:#921d5a"/></svg>